<?xml version="1.0" encoding="UTF-8"?>
<svg id="Livello_2" data-name="Livello 2" xmlns="http://www.w3.org/2000/svg" viewBox="0 0 338.2 37.75">
  <defs>
    <style>
      .cls-1 {
        fill: #fff;
      }
    </style>
  </defs>
  <g id="Livello_1-2" data-name="Livello 1">
    <g>
      <g>
        <path class="cls-1" d="M5.3,12.36c-.69,0-.88-.58-.88-.93,0-.91.74-2.03,1.59-2.03s1.04.58,1.04.93c0,.91-.74,2.03-1.76,2.03M1.02,17.36h.74c1.18,0,2.34-.11,3.52-.6l-2.86,8.96c-.19.58-.44,1.29-.44,1.7,0,.33.19.71.66.71,1.46,0,2.72-1.87,3.05-2.36l.33.22c-.36.6-1.98,2.8-4.12,2.8-.88,0-1.9-.5-1.9-1.84,0-.52.19-1.07.36-1.65l2.34-7.5H.94l.08-.44Z"/>
        <path class="cls-1" d="M9.07,17.8h-1.7l.11-.44h.58c1.18,0,2.34-.11,3.52-.6l-1.13,3.79h.06c1.21-2.01,3.3-3.79,5.44-3.79,1.76,0,2.58.99,2.58,2.23s-2.61,7.61-2.61,8.3c0,.44.19.85.63.85,1.18,0,2.31-1.87,2.75-2.39l.27.19c-.55.8-1.84,2.86-3.85,2.86-1.29,0-1.79-.8-1.79-2.03,0-1.7,2.61-7.5,2.61-8.65,0-.55-.3-.91-1.05-.91-1.29,0-4.67,2.03-5.77,5.77l-1.65,5.66h-2.2l3.19-10.83Z"/>
      </g>
      <polygon class="cls-1" points="24.21 9.85 21.71 9.85 21.71 9.41 29.51 9.41 29.51 9.85 27.01 9.85 27.01 28.31 29.51 28.31 29.51 28.75 21.71 28.75 21.71 28.31 24.21 28.31 24.21 9.85"/>
      <path class="cls-1" d="M37.98,9.85h-.58c-4.89,0-5.99.74-5.99,5.25h-.44v-5.69h16.81v5.69h-.44c0-4.51-1.1-5.25-5.96-5.25h-.6v18.46h2.83v.44h-8.46v-.44h2.83V9.85Z"/>
      <path class="cls-1" d="M54.29,13.72h-.06l-2.69,8.33h5.58l-2.83-8.33ZM57.25,22.48h-5.88l-1.13,3.46c-.19.55-.41,1.21-.41,1.67,0,.38.33.69,1.21.69h1.43v.44h-5.66v-.44h.88c.85,0,1.21-.08,1.73-1.62l5.91-17.72h.3l6.68,19.34h2.28v.44h-8.05v-.44h2.69l-1.98-5.82Z"/>
      <path class="cls-1" d="M68.31,9.85h-2.75v-.44h8.3v.44h-2.75v18.46h3.43c5.28,0,6.93-.69,6.93-5.88h.44v6.32h-16.35v-.44h2.75V9.85Z"/>
      <path class="cls-1" d="M88.07,21.66l-5.14-11.81h-2.5v-.44h8v.44h-2.28l4.59,10.63,3.4-7.69c.5-1.1.72-1.68.72-2.2,0-.47-.33-.74-1.24-.74h-1.05v-.44h5.63v.44h-1.15c-1.04,0-1.37.71-1.73,1.51l-4.45,9.86v7.09h2.91v.44h-8.63v-.44h2.91v-6.65Z"/>
      <g>
        <path class="cls-1" d="M141.38,23.32h-6.52l-1.43,3.16h-.88l5.17-11.23h.82l5.17,11.23h-.88l-1.44-3.16ZM141.07,22.63l-2.95-6.48-2.94,6.48h5.89Z"/>
        <path class="cls-1" d="M159.25,21.59v4.89h-.8v-4.83c0-1.89-.98-2.89-2.62-2.89-1.89,0-3.07,1.27-3.07,3.26v4.46h-.8v-4.83c0-1.89-.98-2.89-2.62-2.89-1.89,0-3.07,1.27-3.07,3.26v4.46h-.8v-8.38h.77v1.8c.55-1.17,1.69-1.86,3.21-1.86s2.62.69,3.06,2.02c.55-1.22,1.77-2.02,3.39-2.02,2.02,0,3.34,1.2,3.34,3.55Z"/>
        <path class="cls-1" d="M170.9,22.29c0,2.5-1.78,4.25-4.14,4.25-1.51,0-2.78-.75-3.43-2.04v1.97h-.77v-11.91h.8v5.44c.67-1.25,1.93-1.97,3.4-1.97,2.36,0,4.14,1.73,4.14,4.25ZM170.1,22.29c0-2.1-1.46-3.53-3.39-3.53s-3.37,1.43-3.37,3.53,1.44,3.53,3.37,3.53,3.39-1.43,3.39-3.53Z"/>
        <path class="cls-1" d="M179.42,21.17v5.31h-.77v-1.49c-.53.96-1.56,1.56-3.02,1.56-1.88,0-3.02-.96-3.02-2.39,0-1.27.8-2.34,3.13-2.34h2.87v-.67c0-1.56-.85-2.39-2.49-2.39-1.16,0-2.2.43-2.89,1.06l-.4-.58c.83-.74,2.05-1.19,3.35-1.19,2.07,0,3.23,1.06,3.23,3.13ZM178.62,24.01v-1.57h-2.86c-1.73,0-2.34.72-2.34,1.69,0,1.09.85,1.77,2.33,1.77s2.39-.67,2.87-1.88Z"/>
        <path class="cls-1" d="M181.49,25.47l.37-.64c.64.54,1.78,1.01,3.02,1.01,1.77,0,2.47-.63,2.47-1.57,0-2.44-5.55-.64-5.55-3.93,0-1.27,1.06-2.3,3.18-2.3,1.06,0,2.21.32,2.87.82l-.37.64c-.71-.51-1.62-.75-2.52-.75-1.64,0-2.36.67-2.36,1.57,0,2.52,5.55.74,5.55,3.93,0,1.36-1.17,2.29-3.31,2.29-1.38,0-2.7-.47-3.35-1.07Z"/>
        <path class="cls-1" d="M189.48,22.29c0-2.5,1.78-4.25,4.24-4.25,1.33,0,2.49.51,3.18,1.54l-.59.43c-.61-.85-1.54-1.25-2.58-1.25-1.97,0-3.42,1.41-3.42,3.53s1.44,3.53,3.42,3.53c1.04,0,1.97-.4,2.58-1.25l.59.43c-.69,1.01-1.84,1.54-3.18,1.54-2.45,0-4.24-1.77-4.24-4.25Z"/>
        <path class="cls-1" d="M199.05,15.42c0-.35.29-.66.66-.66s.66.29.66.64-.29.66-.66.66-.66-.29-.66-.64ZM199.3,18.1h.8v8.38h-.8v-8.38Z"/>
        <path class="cls-1" d="M209.54,21.17v5.31h-.77v-1.49c-.53.96-1.56,1.56-3.02,1.56-1.88,0-3.02-.96-3.02-2.39,0-1.27.8-2.34,3.13-2.34h2.87v-.67c0-1.56-.85-2.39-2.49-2.39-1.16,0-2.2.43-2.89,1.06l-.4-.58c.83-.74,2.05-1.19,3.35-1.19,2.07,0,3.23,1.06,3.23,3.13ZM208.74,24.01v-1.57h-2.86c-1.73,0-2.34.72-2.34,1.69,0,1.09.85,1.77,2.33,1.77s2.39-.67,2.87-1.88Z"/>
        <path class="cls-1" d="M217,25.95c-.42.4-1.09.59-1.72.59-1.48,0-2.28-.87-2.28-2.28v-5.47h-1.54v-.69h1.54v-1.83h.8v1.83h2.66v.69h-2.66v5.39c0,1.08.53,1.67,1.56,1.67.5,0,.96-.16,1.3-.47l.34.56Z"/>
        <path class="cls-1" d="M218.01,22.29c0-2.49,1.78-4.25,4.19-4.25s4.19,1.77,4.19,4.25-1.78,4.25-4.19,4.25-4.19-1.77-4.19-4.25ZM225.57,22.29c0-2.1-1.44-3.53-3.37-3.53s-3.37,1.43-3.37,3.53,1.44,3.53,3.37,3.53,3.37-1.43,3.37-3.53Z"/>
        <path class="cls-1" d="M232.84,18.04v.79c-.06,0-.13-.02-.19-.02-1.86,0-2.97,1.24-2.97,3.31v4.37h-.8v-8.38h.77v1.83c.51-1.22,1.62-1.89,3.19-1.89Z"/>
        <path class="cls-1" d="M234.81,15.42c0-.35.29-.66.66-.66s.66.29.66.64-.29.66-.66.66-.66-.29-.66-.64ZM235.07,18.1h.8v8.38h-.8v-8.38Z"/>
        <path class="cls-1" d="M250.83,14.57v11.91h-.79v-1.97c-.66,1.3-1.93,2.04-3.43,2.04-2.36,0-4.14-1.75-4.14-4.25s1.78-4.25,4.14-4.25c1.49,0,2.74.74,3.42,2.01v-5.47h.8ZM250.03,22.29c0-2.1-1.44-3.53-3.37-3.53s-3.37,1.43-3.37,3.53,1.44,3.53,3.37,3.53,3.37-1.43,3.37-3.53Z"/>
        <path class="cls-1" d="M261.29,22.48h-7.21c.08,1.99,1.54,3.34,3.55,3.34,1.06,0,2.04-.39,2.68-1.17l.47.53c-.74.9-1.89,1.36-3.16,1.36-2.54,0-4.32-1.77-4.32-4.25s1.72-4.25,4.01-4.25,4,1.73,4,4.22c0,.06-.02.14-.02.23ZM254.1,21.86h6.42c-.11-1.81-1.43-3.11-3.21-3.11s-3.08,1.28-3.21,3.11Z"/>
        <path class="cls-1" d="M263.79,14.57h.8v11.91h-.8v-11.91Z"/>
        <path class="cls-1" d="M276.26,25.95c-.42.4-1.09.59-1.72.59-1.48,0-2.28-.87-2.28-2.28v-5.47h-1.54v-.69h1.54v-1.83h.8v1.83h2.66v.69h-2.66v5.39c0,1.08.53,1.67,1.56,1.67.5,0,.96-.16,1.3-.47l.34.56Z"/>
        <path class="cls-1" d="M285.26,22.48h-7.21c.08,1.99,1.54,3.34,3.55,3.34,1.06,0,2.04-.39,2.68-1.17l.47.53c-.74.9-1.89,1.36-3.16,1.36-2.54,0-4.32-1.77-4.32-4.25s1.72-4.25,4.01-4.25,4,1.73,4,4.22c0,.06-.02.14-.02.23ZM278.07,21.86h6.42c-.11-1.81-1.43-3.11-3.21-3.11s-3.08,1.28-3.21,3.11Z"/>
        <path class="cls-1" d="M291.73,18.04v.79c-.06,0-.13-.02-.19-.02-1.86,0-2.97,1.24-2.97,3.31v4.37h-.8v-8.38h.77v1.83c.51-1.22,1.62-1.89,3.19-1.89Z"/>
        <path class="cls-1" d="M297.92,18.04v.79c-.06,0-.13-.02-.19-.02-1.86,0-2.97,1.24-2.97,3.31v4.37h-.8v-8.38h.77v1.83c.51-1.22,1.62-1.89,3.19-1.89Z"/>
        <path class="cls-1" d="M299.88,15.42c0-.35.29-.66.66-.66s.66.29.66.64-.29.66-.66.66-.66-.29-.66-.64ZM300.14,18.1h.8v8.38h-.8v-8.38Z"/>
        <path class="cls-1" d="M308.48,25.95c-.42.4-1.09.59-1.72.59-1.48,0-2.28-.87-2.28-2.28v-5.47h-1.54v-.69h1.54v-1.83h.8v1.83h2.67v.69h-2.67v5.39c0,1.08.53,1.67,1.56,1.67.5,0,.96-.16,1.3-.47l.34.56Z"/>
        <path class="cls-1" d="M309.49,22.29c0-2.49,1.78-4.25,4.19-4.25s4.19,1.77,4.19,4.25-1.78,4.25-4.19,4.25-4.19-1.77-4.19-4.25ZM317.05,22.29c0-2.1-1.44-3.53-3.37-3.53s-3.37,1.43-3.37,3.53,1.44,3.53,3.37,3.53,3.37-1.43,3.37-3.53Z"/>
        <path class="cls-1" d="M324.32,18.04v.79c-.06,0-.13-.02-.19-.02-1.86,0-2.97,1.24-2.97,3.31v4.37h-.8v-8.38h.77v1.83c.51-1.22,1.62-1.89,3.19-1.89Z"/>
        <path class="cls-1" d="M326.29,15.42c0-.35.29-.66.66-.66s.66.29.66.64-.29.66-.66.66-.66-.29-.66-.64ZM326.55,18.1h.8v8.38h-.8v-8.38Z"/>
        <path class="cls-1" d="M329.82,22.29c0-2.49,1.78-4.25,4.19-4.25s4.19,1.77,4.19,4.25-1.78,4.25-4.19,4.25-4.19-1.77-4.19-4.25ZM337.38,22.29c0-2.1-1.44-3.53-3.37-3.53s-3.37,1.43-3.37,3.53,1.44,3.53,3.37,3.53,3.37-1.43,3.37-3.53Z"/>
      </g>
      <rect class="cls-1" x="114.88" width=".4" height="37.75"/>
    </g>
  </g>
</svg>